<?xml version="1.0" encoding="UTF-8"?>
<svg width="19px" height="24px" viewBox="0 0 19 24" version="1.1" xmlns="http://www.w3.org/2000/svg" xmlns:xlink="http://www.w3.org/1999/xlink">
    <title>Shape</title>
    <g id="Page-1" stroke="none" stroke-width="1" fill="none" fill-rule="evenodd">
        <g id="Macbook-13''-Copy-3" transform="translate(-1179.000000, -39.000000)" fill="#FFFFFF" fill-rule="nonzero">
            <g id="Header" transform="translate(0.000000, 22.000000)">
                <g id="shopping-bag-svgrepo-com" transform="translate(1179.000000, 17.000000)">
                    <path d="M19,20.8006624 L17.6316062,5.23618298 C17.6069948,4.92817222 17.3510363,4.69468019 17.0409326,4.69468019 L14.1564767,4.69468019 C14.1515544,2.10639619 12.0645078,0 9.5,0 C6.93549223,0 4.8484456,2.10639619 4.84352332,4.69468019 L1.95906736,4.69468019 C1.65388601,4.69468019 1.39792746,4.92817222 1.36839378,5.23618298 L0,20.8006624 C0,20.8205341 0,20.8354378 0,20.8553095 C0,22.589112 1.58005181,24 3.51943005,24 L15.4805699,24 C17.4199482,24 19,22.589112 19,20.8553095 C19,20.8354378 19,20.8205341 19,20.8006624 Z M9.5,1.19229973 C11.4147668,1.19229973 12.9702073,2.76216104 12.9751295,4.69468019 L6.02487047,4.69468019 C6.02979275,2.76216104 7.58523316,1.19229973 9.5,1.19229973 Z M15.4805699,22.8027324 L3.51943005,22.8027324 C2.23963731,22.8027324 1.19611399,21.943283 1.18134715,20.8751811 L2.50051813,5.88697992 L4.84352332,5.88697992 L4.84352332,7.97847237 C4.84352332,8.30635479 5.10932642,8.57462223 5.43419689,8.57462223 C5.75906736,8.57462223 6.02487047,8.30635479 6.02487047,7.97847237 L6.02487047,5.88697992 L12.9751295,5.88697992 L12.9751295,7.97847237 C12.9751295,8.30635479 13.2409326,8.57462223 13.5658031,8.57462223 C13.8906736,8.57462223 14.1564767,8.30635479 14.1564767,7.97847237 L14.1564767,5.88697992 L16.4994819,5.88697992 L17.8186528,20.880149 C17.803886,21.943283 16.7603627,22.8027324 15.4805699,22.8027324 Z" id="Shape"></path>
                </g>
            </g>
        </g>
    </g>
</svg>