<?xml version="1.0" encoding="UTF-8"?><svg xmlns="http://www.w3.org/2000/svg" viewBox="0 0 306.62 442.88"><defs><style>.d{fill:#ed9432;}.e{fill:#d15d4e;}</style></defs><g id="a"/><g id="b"><g id="c"><g><path class="e" d="M137.28,442.88c-.53-28.85-1.17-58.31-11.01-86.72-9.84-28.41-30.7-56.1-58.98-66.99-11.83-4.55-24.57-6.08-35.61-12.69C10.25,263.66,2.37,236.51,.61,212.96c-3.11-41.53,5.65-82.29,24.98-116.26-13.93,53.13,23.38,120.69,78.87,142.84-25.89-18.83-29.11-56.23-18.62-82.77,10.49-26.54,30.93-47.04,43.66-72.37,12.72-25.33,14.48-54.37-5.58-84.41,49.1,72.98,77.46,157.88,80.31,240.4,39.91-47.19,53.85-116.18,36.74-181.91,22.94,42.44,46.12,85.49,57.99,130.95,11.88,45.46,11.33,94.4-11.58,130.72-31.48,49.89-98.34,67.49-130.61,116.82"/><path class="d" d="M153.65,408.64c2.36-10.87,3.73-22.07,4.1-33.44,.25-7.92,0-16.05-2.38-23.98-5.77-19.19-22.73-33.89-38.69-47.15l-22.16-18.41c-12.24-10.17-24.66-20.53-33.99-33.35-9.33-12.82-15.3-28.69-12.6-42.87,5.73,19.37,17.26,38.49,34.53,50.17,17.27,11.68,40.65,14.29,55.24,3.17-10.05-6.4-15.62-18.13-18.27-29.31-4.3-18.14-2.6-36.54,2.53-53.19,5.13-16.66,13.57-31.75,22.79-46.12,10.53,26.92,25.07,44.6,29.7,72.38,3.58,21.5,8.4,40.13,24.26,67.19,16.8-8.4,17.18-13.76,32.66-31.73,15.48-17.97,20.31-39.49,25.54-63.45-1.54,15.85-2.74,31.81-2.5,47.97,.16,11.27,1.02,22.67-.21,33.69-1.51,13.58-6.16,26.22-11.7,38.22-21.43,46.39-56.11,84.07-90.36,121.1"/></g></g></g></svg>