<?xml version="1.0" encoding="UTF-8"?><svg xmlns="http://www.w3.org/2000/svg" viewBox="0 0 552 301.59"><defs><style>.d{fill:#ef7030;}.e{fill:#edd1a9;}.f{fill:#285f9f;}.g{fill:#353c38;}.h{fill:#398e53;}</style></defs><g id="a"/><g id="b"><g id="c"><g><g><g><g><g><path class="f" d="M374.43,209.74c30.1-13.66,58.21-32.25,83.03-54.91-13.79,21.46-35.96,34.86-57.35,47.51-7.6,4.5-15.39,9.07-23.96,10.7,5.03-1.47,10.04-3.05,15.01-4.72,12.51-4.21,24.87-9.07,36.49-15.54,24.09-13.42,45.2-33.82,71.57-40.94-8.9,3.06-15.45,10.85-22.22,17.69-20.19,20.42-45.31,34.33-70.07,47.98,36.86-15.15,73.03-33.45,103.8-59.76-23,23.28-49.03,43.18-77.13,58.97,36.01-9.88,64.85-37.65,97.58-56.38-22.77,19.84-46.81,38.03-71.92,54.39,27.99-11.69,54.85-26.4,80.03-43.85-12.8,13.7-28,24.56-43.09,35.32,18.24-5.42,35.26-14.58,52.15-23.69l-31.7,23.79c10.79-3.44,21.41-7.5,31.79-12.15-8.23,7.58-13.34,12.54-23.98,15.06"/><path class="f" d="M366.2,213.23c14.73-7.08,28.47-16.47,40.63-27.77-9.51,9.9-19.92,18.82-31.05,26.59,18.79-5.57,36.68-14.51,52.69-26.32-8,8.68-16.17,17.5-26.27,23.22"/><path class="f" d="M424.01,204.38c14.36-4.35,28.23-10.47,41.25-18.22-9.05,7.47-18.36,14.59-27.66,21.71l-2.4,1.84"/><path class="f" d="M449.68,204.62c10.1-3.49,19.8-8.28,28.82-14.24-8.8,8.92-18.29,17.07-28.34,24.33l1.36-1.03"/><path class="f" d="M461.19,210.8c13.57-5.58,50.83-30.14,62.59-39.24-12.17,10.87-24.35,21.74-36.52,32.61,.26-.67-7.95,4.99-7.69,4.32"/><path class="f" d="M506.24,207.7c-.08,.57-.21,1.06-.17,1.63,2.28-1.9,4.24-4.52,6.97-5.73,2.28-1.01,5.01-1.09,7.4-1.68,7.28-1.81,14.28-4.93,20.6-9.15-5.08,5.47-10.55,10.53-16.33,15.15,8.63-2.95,19.09-5.76,27.28-9.87-5.13,3.86-10.26,7.72-15.69,11.07-.74,.46-1.54,.92-2.4,.92s-1.78-.64-1.82-1.55"/></g><g><path class="f" d="M370.16,221.12c31.06,11.08,60.44,27.31,86.79,47.94-15.23-20.4-38.32-31.93-60.58-42.78-7.91-3.86-16.01-7.77-24.71-8.65,5.14,1.04,10.26,2.18,15.35,3.42,12.81,3.13,25.51,6.92,37.57,12.4,25.02,11.37,47.5,30.05,74.39,34.88-9.11-2.29-16.19-9.56-23.42-15.85-21.57-18.78-47.65-30.57-73.35-42.11,37.92,11.98,75.36,27.2,107.91,50.98-24.57-21.42-51.96-39.16-81.15-52.56,36.72,6.75,67.45,32.16,101.46,48.12-24.11-17.97-49.4-34.16-75.63-48.41,28.81,9.28,56.68,21.72,83.05,37.06-13.72-12.67-29.67-22.26-45.49-31.76,18.63,3.84,36.28,11.55,53.8,19.22l-33.32-21.15c11.04,2.5,21.94,5.65,32.64,9.41-8.75-6.91-14.19-11.45-25.02-13.04"/><path class="f" d="M361.68,218.34c15.22,5.82,29.6,14.06,42.53,24.37-10.18-9.13-21.19-17.19-32.85-24.04,19.18,3.94,37.7,11.35,54.51,21.83-8.59-8.04-17.35-16.2-27.85-21.06"/><path class="f" d="M420.17,222.09c14.67,3.1,28.97,8.04,42.52,14.68-9.56-6.72-19.35-13.07-29.13-19.41l-2.53-1.64"/><path class="f" d="M445.87,219.56c10.35,2.61,20.38,6.58,29.8,11.78-9.4-8.21-19.44-15.57-30-22l1.43,.92"/><path class="f" d="M457,212.3c13.96,4.41,52.9,25.85,65.28,33.97-12.91-9.87-25.82-19.75-38.73-29.62,.31,.65-8.29-4.32-7.99-3.67"/><path class="f" d="M502.32,211.4c-.12-.56-.28-1.05-.28-1.63,2.41,1.71,4.54,4.18,7.36,5.16,2.35,.82,5.09,.65,7.53,1.04,7.41,1.18,14.63,3.69,21.24,7.38-5.45-5.06-11.26-9.68-17.36-13.81,8.84,2.2,19.5,4.1,27.98,7.51-5.39-3.43-10.79-6.87-16.45-9.76-.77-.4-1.6-.79-2.46-.71s-1.74,.81-1.72,1.73"/></g></g><path class="h" d="M358.86,211.79c15.92-4.06,45.89-5.91,72.43-6.31,36.09-.54,70.94,.98,97.61,4.26-16.82,.9-30.15,3.38-43.53,5.54-22.13,3.57-47.87,6.62-75.68,8.16-27.8,1.54-57.79,1.43-79.26-.94"/><path class="e" d="M341.87,215.33c8.4-2.75,24.24-3.89,38.27-4.02,19.08-.18,37.52,1.07,51.65,3.51-8.89,.54-15.93,2.2-22.99,3.64-11.68,2.38-25.28,4.38-39.98,5.3s-30.56,.69-41.92-1.09"/></g><g><g><g><path class="f" d="M195.42,214.33c-33.13-11.77-64.07-27.79-91.37-47.31,15.18,18.49,39.57,30.03,63.11,40.94,8.37,3.88,16.94,7.81,26.37,9.22-5.54-1.27-11.05-2.63-16.52-4.07-13.77-3.63-27.37-7.81-40.15-13.39-26.51-11.56-49.74-29.14-78.76-35.28,9.79,2.64,17,9.35,24.45,15.25,22.22,17.59,49.87,29.58,77.11,41.34-40.56-13.05-80.37-28.82-114.23-51.49,25.31,20.06,53.96,37.21,84.88,50.81-39.62-8.51-71.37-32.44-107.39-48.58,25.05,17.1,51.52,32.77,79.15,46.86-30.8-10.07-60.36-22.75-88.07-37.79,14.08,11.8,30.81,21.16,47.42,30.43-20.07-4.67-38.81-12.57-57.39-20.41l34.89,20.5c-11.88-2.96-23.56-6.46-34.98-10.47,9.06,6.53,14.68,10.81,26.39,12.97"/><path class="f" d="M204.47,217.33c-16.21-6.1-31.33-14.19-44.71-23.93,10.46,8.53,21.92,16.21,34.17,22.91-20.67-4.8-40.36-12.5-57.99-22.68,8.8,7.48,17.8,15.08,28.91,20.01"/><path class="f" d="M140.85,209.71c-15.8-3.74-31.07-9.03-45.39-15.7,9.96,6.43,20.2,12.57,30.44,18.7l2.64,1.58"/><path class="f" d="M112.6,209.91c-11.12-3-21.79-7.13-31.71-12.27,9.68,7.69,20.12,14.71,31.19,20.97l-1.49-.89"/><path class="f" d="M99.93,215.24c-14.94-4.81-55.94-25.97-68.88-33.81,13.4,9.37,26.79,18.73,40.19,28.1-.29-.58,8.75,4.3,8.46,3.73"/><path class="f" d="M50.36,212.57c.09,.49,.23,.91,.19,1.4-2.51-1.63-4.66-3.89-7.67-4.94-2.51-.87-5.51-.94-8.15-1.45-8.01-1.56-15.71-4.25-22.68-7.88,5.59,4.71,11.61,9.08,17.97,13.05-9.5-2.54-21-4.96-30.02-8.5,5.64,3.32,11.29,6.65,17.27,9.54,.82,.4,1.69,.79,2.64,.79s1.96-.55,2-1.34"/></g><g><path class="f" d="M200.12,224.13c-34.18,9.55-66.51,23.54-95.51,41.31,16.76-17.58,42.17-27.51,66.67-36.86,8.71-3.32,17.62-6.69,27.19-7.45-5.65,.89-11.29,1.87-16.89,2.95-14.1,2.69-28.07,5.96-41.35,10.69-27.53,9.8-52.28,25.9-81.87,30.06,10.03-1.97,17.82-8.24,25.78-13.66,23.74-16.18,52.44-26.34,80.73-36.29-41.73,10.32-82.93,23.43-118.76,43.92,27.04-18.45,57.18-33.74,89.3-45.29-40.41,5.81-74.23,27.71-111.66,41.46,26.54-15.48,54.37-29.43,83.23-41.71-31.7,8-62.38,18.72-91.4,31.94,15.1-10.92,32.65-19.18,50.06-27.36-20.5,3.31-39.93,9.95-59.2,16.56l36.67-18.22c-12.15,2.16-24.14,4.87-35.93,8.1,9.63-5.95,15.61-9.87,27.53-11.23"/><path class="f" d="M209.45,221.74c-16.75,5.02-32.58,12.12-46.8,21,11.2-7.87,23.33-14.81,36.15-20.71-21.11,3.4-41.49,9.78-59.99,18.81,9.45-6.93,19.1-13.96,30.65-18.15"/><path class="f" d="M145.08,224.97c-16.14,2.67-31.88,6.93-46.79,12.65,10.52-5.79,21.29-11.26,32.06-16.73l2.78-1.41"/><path class="f" d="M116.8,222.79c-11.39,2.25-22.43,5.67-32.8,10.15,10.34-7.07,21.4-13.42,33.01-18.96l-1.57,.79"/><path class="f" d="M104.55,216.54c-15.37,3.8-58.22,22.27-71.84,29.27,14.21-8.51,28.42-17.01,42.63-25.52-.34,.56,9.13-3.73,8.79-3.16"/><path class="f" d="M54.67,215.76c.13-.49,.31-.91,.3-1.4-2.65,1.47-5,3.6-8.1,4.44-2.59,.7-5.6,.56-8.28,.89-8.16,1.01-16.1,3.18-23.38,6.36,6-4.36,12.39-8.34,19.1-11.9-9.73,1.89-21.46,3.53-30.79,6.47,5.93-2.96,11.87-5.92,18.1-8.41,.85-.34,1.76-.68,2.71-.62,.95,.07,1.92,.7,1.89,1.49"/></g></g><path class="h" d="M196.55,226.52c-16.24,2.52-46.25,1.52-72.7-.61-35.98-2.89-70.52-7.72-96.76-13.52,16.83,.7,30.34-.5,43.86-1.37,22.37-1.45,48.29-2.04,76.11-.93,27.82,1.11,57.66,4.08,78.81,8.47"/></g><g><g><g><path class="f" d="M218.4,169.55c-9.84-34.64-12.65-70.42-8.3-105.71-12.11,24.85-8.52,52.33-4.75,78.68,1.34,9.37,2.75,18.94,8.02,27.47-2.53-5.31-4.93-10.66-7.19-16.04-5.69-13.52-10.55-27.3-13.04-41.38-5.16-29.19-.22-59.86-14.13-87.34,3.98,9.66,.85,20.05-1.06,30.06-5.7,29.88-.25,60.27,5.21,90.18-13.77-41.48-23.53-84.2-20.08-126.9-6.53,34.05-6.86,68.78-1,102.9-18.83-37.61-12.21-79.47-18.67-119.42-2.96,31.81-3.05,63.78-.28,95.6-10.26-31.6-16.27-64-17.91-96.53-4.44,19.39-3.81,39.22-3.15,58.89-9.08-19.3-13.07-39.73-17.02-60.01l.08,42.03c-5.12-11.56-9.42-23.32-12.88-35.23-1.51,11.75-2.74,19.18,3.28,30.06"/><path class="f" d="M221.36,178.87c-4.38-17.18-5.42-34.85-3.07-52.26-3,14.24-4.18,28.7-3.52,43.11-9.37-19.87-14.32-40.94-14.58-62.05-2.91,12.19-5.83,24.61-3.76,36.9"/><path class="f" d="M186.5,137.24c-7.06-15.24-14.82-45.7-17.07-61.77-.71,12.4-.84,24.82-.97,37.23l-.03,3.2"/><path class="f" d="M162.08,100.12c-4.5-10.97-7.25-22.36-8.15-33.84-2.51,13.03-3.61,26.22-3.28,39.39v-1.81"/><path class="f" d="M145.85,93.61c-5.07-15.27-8.88-62.66-8.6-78.41-1.87,17.17-3.73,34.33-5.6,51.5,.52-.63,1.08,9.97,1.6,9.34"/><path class="f" d="M112.16,52.03c-.55,.41-.99,.81-1.64,1.11,.2-3.13,1.45-6.41,.53-9.54-.77-2.61-2.93-5.06-4.25-7.53-4.01-7.49-6.36-15.51-6.95-23.59-1.79,7.72-2.84,15.53-3.12,23.36-3.88-9.35-9.41-20.25-11.66-29.9,0,6.8,0,13.62,.81,20.39,.11,.93,.26,1.9,.97,2.66s2.17,1.19,3.19,.68"/></g><g><path class="f" d="M211.05,178.87c-37.67-20.86-79.6-37.19-123.82-48.26,34.84,1.38,66.44,14.95,96.62,28.18,10.73,4.7,21.67,9.54,29.79,16.69-5.36-3.92-10.82-7.76-16.37-11.53-13.96-9.46-28.55-18.42-44.48-25.83-33.02-15.36-71.95-24.16-99.35-45.03,10,6.69,23.78,8.64,36.61,11.3,38.28,7.94,72.63,23.99,106.4,39.85-44.3-26.39-91.74-50.43-144.53-65.1,43.63,9.03,85.57,22.71,124.23,40.55-37.59-28.41-90.66-40.51-136.1-61.1,39.49,10.66,77.99,23.41,115.16,38.13-33.85-19.94-70.39-37.19-108.86-51.39,25.14,4.62,48.74,13.03,72.15,21.38-19.52-14.17-42.49-25.19-65.28-36.11l50.54,16.91c-11.82-8.26-24.23-16.02-37.15-23.25,14.75,3.64,24.19,5.75,34.84,14.37"/><path class="f" d="M221.06,184.71c-18.89-9.99-39.73-17.81-61.64-23.13,18.35,3.59,36.24,8.55,53.31,14.79-20.09-14.6-43.43-26.56-68.72-35.21,15.85,2.83,31.99,5.74,45.94,12.13"/><path class="f" d="M168.83,135.31c-15.46-11.11-32.62-20.81-51.04-28.84,15.21,4.47,30.21,9.35,45.2,14.24l3.87,1.26"/><path class="f" d="M150.44,111.14c-11.37-7.59-23.96-14.1-37.4-19.34,16.71,3.44,33.03,7.95,48.74,13.47l-2.18-.72"/><path class="f" d="M149.22,97.03c-16.32-9.71-71.79-31.41-90.86-37.53,21.42,5.56,42.84,11.12,64.25,16.68-.97,.11,11.55,4.76,10.59,4.88"/><path class="f" d="M112.91,56.5c.72-.23,1.38-.38,2.01-.72-3.85-1.11-8.31-1.54-11.69-3.45-2.83-1.59-4.9-4.11-7.33-6.03-7.38-5.84-16.07-10.72-25.55-14.38,10.01,1.82,19.84,4.22,29.39,7.16-9.68-6.5-20.53-14.78-31.24-20.25,8.19,2.73,16.38,5.46,24.21,8.75,1.07,.45,2.18,.94,2.81,1.75s.55,2.02-.48,2.54"/></g></g><path class="h" d="M225.26,177.15c-41.79-59.83-90.95-112.27-135.45-144.5,45.9,67.42,98.41,129.46,149.98,177.19"/></g><g><g><g><path class="f" d="M344.28,172.37c8.89-34.64,11.42-70.42,7.49-105.71,10.94,24.85,7.69,52.33,4.29,78.68-1.21,9.37-2.48,18.94-7.24,27.47,2.29-5.31,4.45-10.66,6.5-16.04,5.14-13.52,9.53-27.3,11.78-41.38,4.66-29.19,.2-59.86,12.76-87.34-3.59,9.66-.77,20.05,.96,30.06,5.15,29.88,.22,60.27-4.7,90.18,12.44-41.48,21.25-84.2,18.14-126.9,5.9,34.05,6.2,68.78,.9,102.9,17-37.61,11.03-79.47,16.86-119.42,2.67,31.81,2.75,63.78,.25,95.6,9.26-31.6,14.69-64,16.18-96.53,4.01,19.39,3.44,39.22,2.85,58.89,8.2-19.3,11.81-39.73,15.37-60.01l-.08,42.03c4.62-11.56,8.51-23.32,11.63-35.23,1.37,11.75,2.47,19.18-2.96,30.06"/><path class="f" d="M341.61,181.69c3.96-17.18,4.9-34.85,2.77-52.26,2.71,14.24,3.77,28.7,3.18,43.11,8.46-19.87,12.93-40.94,13.17-62.05,2.63,12.19,5.27,24.61,3.4,36.9"/><path class="f" d="M373.1,140.06c6.38-15.24,13.39-45.7,15.41-61.77,.64,12.4,.76,24.82,.88,37.23l.03,3.2"/><path class="f" d="M395.15,102.94c4.07-10.97,6.54-22.36,7.36-33.84,2.27,13.03,3.26,26.22,2.96,39.39v-1.81"/><path class="f" d="M409.81,96.43c4.58-15.27,8.02-62.66,7.77-78.41,1.69,17.17,3.37,34.33,5.06,51.5-.47-.63-.98,9.97-1.44,9.34"/><path class="f" d="M440.23,54.85c.5,.41,.89,.81,1.48,1.11-.18-3.13-1.31-6.41-.48-9.54,.7-2.61,2.65-5.06,3.84-7.53,3.62-7.49,5.74-15.51,6.28-23.59,1.62,7.72,2.56,15.53,2.82,23.36,3.5-9.35,8.5-20.25,10.53-29.9,0,6.8,0,13.62-.73,20.39-.1,.93-.23,1.9-.87,2.66s-1.96,1.19-2.88,.68"/></g><g><path class="f" d="M350.92,181.69c34.03-20.86,71.89-37.19,111.84-48.26-31.47,1.38-60.01,14.95-87.27,28.18-9.69,4.7-19.57,9.54-26.9,16.69,4.84-3.92,9.77-7.76,14.79-11.53,12.61-9.46,25.79-18.42,40.17-25.83,29.83-15.36,64.98-24.16,89.74-45.03-9.03,6.69-21.48,8.64-33.06,11.3-34.58,7.94-65.6,23.99-96.1,39.85,40.01-26.39,82.86-50.43,130.54-65.1-39.41,9.03-77.29,22.71-112.21,40.55,33.95-28.41,81.89-40.51,122.93-61.1-35.66,10.66-70.44,23.41-104.01,38.13,30.57-19.94,63.58-37.19,98.33-51.39-22.71,4.62-44.03,13.03-65.17,21.38,17.63-14.17,38.37-25.19,58.96-36.11l-45.65,16.91c10.68-8.26,21.88-16.02,33.55-23.25-13.32,3.64-21.85,5.75-31.47,14.37"/><path class="f" d="M341.88,187.53c17.06-9.99,35.89-17.81,55.68-23.13-16.58,3.59-32.73,8.55-48.15,14.79,18.15-14.6,39.23-26.56,62.07-35.21-14.32,2.83-28.9,5.74-41.5,12.13"/><path class="f" d="M389.05,138.13c13.96-11.11,29.47-20.81,46.1-28.84-13.74,4.47-27.28,9.35-40.82,14.24l-3.5,1.26"/><path class="f" d="M405.66,113.96c10.27-7.59,21.64-14.1,33.78-19.34-15.09,3.44-29.83,7.95-44.02,13.47l1.97-.72"/><path class="f" d="M406.76,99.85c14.74-9.71,64.84-31.41,82.06-37.53-19.35,5.56-38.69,11.12-58.04,16.68,.87,.11-10.43,4.76-9.56,4.88"/><path class="f" d="M439.56,59.32c-.65-.23-1.24-.38-1.81-.72,3.47-1.11,7.5-1.54,10.56-3.45,2.56-1.59,4.42-4.11,6.62-6.03,6.67-5.84,14.52-10.72,23.08-14.38-9.04,1.82-17.92,4.22-26.54,7.16,8.74-6.5,18.54-14.78,28.21-20.25-7.39,2.73-14.8,5.46-21.87,8.75-.97,.45-1.97,.94-2.53,1.75s-.5,2.02,.43,2.54"/></g></g><path class="h" d="M341.36,192.29c51.24-51.96,93.89-109.83,117.5-159.44-57.96,57.38-109.44,120.29-147.01,179.67"/><path class="e" d="M325.66,204.74c22.24-22.55,40.75-47.67,50.99-69.2-25.16,24.9-47.5,52.21-63.8,77.98"/></g><path class="e" d="M208.84,219.44c-8.4,2.75-24.24,3.89-38.27,4.02-19.08,.18-37.52-1.07-51.65-3.51,8.89-.54,15.93-2.2,22.99-3.64,11.68-2.38,25.28-4.38,39.98-5.3,14.7-.93,30.56-.69,41.92,1.09"/></g><path class="e" d="M168.9,259.98c.76,.94-1.69-2.16-.93-1.22-14.99-22.35-10.67-48.21,5.94-69.66,4-5.17,8.86-9.89,14.74-13.41,5.91-3.54,12.69-5.77,19.4-7.97l13.73-4.51c5.28-1.73,10.57-3.47,16.03-4.73,19.59-4.53,40.38-2.74,60.19,.97,19.74,3.69,38.96,9.23,58.1,14.87,7.41,2.18,15.08,4.52,20.63,9.35,3.32,2.89,5.68,6.5,8,10.06,5.11,7.86,10.26,15.78,13.51,24.37,3.25,8.59,4.51,17.99,1.71,26.7-4.27,13.29-17.11,22.65-29.64,31-4.26,2.84-8.78,5.39-13.28,7.93-6.6,3.72-13.3,7.48-20.76,9.62-2.83,.81-5.73,1.37-8.64,1.89-3.63,.65-7.27,1.22-10.91,1.79l-18.04,2.84c-6.37,1-12.65,.73-19.09,1.33-2.15,.2-4.31,.4-6.47,.39-4.79-.01-9.54-1.02-14.33-.99-2.03,.02-4.11,.21-6.05-.31-5.37-1.45-9.82-1.86-15.34-2.82-3.75-.66-7.5-1.31-11.16-2.3-10-2.7-18.94-7.77-27.4-13.16-9.59-6.11-21.23-14.97-29.93-22.04Z"/><path class="e" d="M266.2,172.5c4.63-8.74,8.08-18.11,10.21-27.77,4.13,9.67,8.29,19.45,10.09,29.81"/><g><path class="g" d="M332.92,226.58c-2.66-3.3-3.19-8.05-1.78-12.05,.91-2.57,2.76-5.02,5.39-5.71,2.9-.77,5.99,.79,7.97,3.04,2.58,2.94,3.7,7.1,2.94,10.94-1.65,8.35-9.04,10.58-14.53,3.78Z"/><path class="g" d="M228.6,227.58c2.81-3.3,3.37-8.05,1.88-12.05-.96-2.57-2.91-5.02-5.7-5.71-3.06-.77-6.33,.79-8.42,3.04-2.73,2.94-3.91,7.1-3.11,10.94,1.74,8.35,9.55,10.58,15.35,3.78Z"/><path class="f" d="M225.37,226.09c2.23-2.62,2.67-6.38,1.49-9.56-.76-2.04-2.31-3.98-4.52-4.53-2.43-.61-5.02,.63-6.68,2.41-2.16,2.33-3.1,5.63-2.47,8.68,1.38,6.62,7.58,8.39,12.18,3Z"/><path class="f" d="M347.51,222.99c1.15-3.24,.22-6.92-2.02-9.46-1.44-1.63-3.58-2.89-5.84-2.62-2.49,.3-4.47,2.38-5.38,4.64-1.19,2.95-.89,6.37,.79,8.99,3.66,5.69,10.08,5.13,12.45-1.55Z"/></g><g><path class="g" d="M259.89,244.64c-2.07,3.32-5.63,5.67-9.49,6.28-4.19,.66-12.21-1.1-6.76-5.96,4.02-3.58,11.99-2.78,16.25-.32Z"/><path class="g" d="M303.39,244.19c2,3.32,5.43,5.67,9.16,6.28,4.04,.66,11.78-1.1,6.52-5.96-3.88-3.58-11.57-2.78-15.68-.32Z"/><path class="d" d="M251.29,249.07c-1.06,1.93-2.15,3.9-3.77,5.39-1.62,1.49-3.9,2.45-6.05,1.94-.9-.21-1.74-.67-2.66-.71-1.79-.08-3.24,1.42-4.19,2.93-1.67,2.68-2.58,5.83-2.58,8.98,1.03-4.22,5.75-7.15,9.98-6.2-2.28,.13-3.81,2.53-4.1,4.79s.25,4.55,.14,6.83-1.17,4.8-3.35,5.48c5.65-2.78,10.43-7.28,13.54-12.75,.8,4.96-.79,10.25-4.19,13.95,2.93-1.86,5.91-3.76,8.26-6.32,2.35-2.56,4.06-5.9,3.93-9.37-.18-4.77-3.71-8.92-3.96-13.69"/><path class="d" d="M314.31,248.98c.73,2.05,1.48,4.13,2.79,5.87s3.28,3.1,5.31,3.04c.85-.03,1.69-.29,2.54-.15,1.65,.28,2.8,1.99,3.48,3.62,1.2,2.87,1.63,6.05,1.24,9.04-.41-4.21-4.38-7.93-8.39-7.87,2.08,.58,3.18,3.15,3.17,5.36-.02,2.21-.8,4.28-.99,6.46-.19,2.19,.47,4.79,2.39,5.86-4.84-3.76-8.67-8.98-10.84-14.79-1.36,4.55-.57,9.89,2.09,14.08-2.46-2.35-4.96-4.74-6.8-7.64s-2.99-6.41-2.43-9.68c.77-4.5,4.53-7.73,5.36-12.21"/></g><path class="e" d="M237.47,201.62c-17.05-26.69-37.43-50.32-56.15-65.09,18.69,30.06,40.35,57.9,61.86,79.52"/></g></g></g></svg>