<?xml version="1.0" encoding="UTF-8"?><svg xmlns="http://www.w3.org/2000/svg" viewBox="0 0 525.41 322"><defs><style>.d{fill:#010000;}.e{fill:#ed9432;}.f{fill:#d15d4e;}.g{fill:#e2d0bf;}.h{fill:#2b2b2b;}.i{fill:#4a8191;}</style></defs><g id="a"/><g id="b"><g id="c"><g><g><g><path class="f" d="M377.26,219.27c10.91-15.09,22.58-29.63,34.97-43.53-6.14,8.12-9.76,18.12-10.22,28.29,2.57-10.66,14.21-16.6,25.06-18.18,10.85-1.58,18.93-1.5,32.69-3.18-17.02,6.04-10.76,18.23-25.74,19.11,11.29,.51,15.53,4.22,22.55-4.63,4.92-6.19,6.92-10.54,14.49-12.81,6.2-1.86,13.35-1.52,19.61,3.27,5.15,3.93,5.74,6.97,10.9,10.9,5.98,4.55,13.07,6.54,23.84,7.51-9.68,1.21-19.02,9.23-23.51,19.13s-9.58,18.04-19.94,21.3c-6.6,2.07-14.15,1.14-20.7-1.09-8.58-2.92-16.34-8.72-26.15-5.45,17.43,0,23.97,15.25,38.13,14.16,0,0-37.94,12.2-50.12,6.54s-17.02-10.47-25.41-20.96c2.79,7.99,5.8,16.6,11.25,25.32-8.01-8.46-18.36-14.96-23.67-23.73-4.28-7.06-9.2-15.97-17.46-15.76"/><path class="f" d="M342.88,171.6c-8.32-19.52-15.68-39.64-22.03-60.28,4.32,10.81,11.86,19.64,21.33,24.96-8.76-7.95-7.91-23.98-3.35-37.07,4.57-13.09,9.18-22.24,15.28-38.67-3.77,22.2,11.4,20.83,3.85,38.28,6.81-12.59,10.93-15,8.21-27.83-1.05-4.96-1.71-17.83-.53-23.23,1.73-7.92,5.76-12.72,13.85-17.59,6.64-4,10.05-5.07,16.69-9.08,7.71-4.66,16.22-9.3,23.19-21.09-4.27,11.58-3.78,23.41,3.17,33.19,6.95,9.78,7.71,18.83,5.01,32.16-1.71,8.48-6.84,16.63-12.64,23.03-7.6,8.39-17.49,14.48-19.86,27.17,9.77-19.82,28.02-20.07,34.91-36.69,0,0-9.59,48.89-21.83,60.08-12.25,11.18-19.55,14.42-34.28,19.02,9.2,.59,19.13,1.23,30.51-.86-12.58,5.13-24.59,13.83-35.96,15.74-9.15,1.54-20.43,2.94-24.86,12.42"/><path class="f" d="M148.72,227.05c-12.42,13.87-25.55,27.11-39.32,39.64,6.96-7.43,11.6-17.01,13.12-27.07-3.67,10.34-15.86,15.02-26.82,15.47-10.96,.44-18.99-.49-32.84-.25,17.56-4.23,12.6-17.01,27.59-16.32-11.17-1.69-15-5.82-22.91,2.25-5.54,5.64-7.98,9.76-15.75,11.22-6.36,1.2-13.43,.11-19.16-5.3-4.71-4.45-4.98-7.53-9.7-11.97-5.47-5.15-12.32-7.87-22.93-9.96,9.75-.19,19.88-7.2,25.38-16.57,5.5-9.37,11.41-16.94,22.06-19.1,6.78-1.37,14.2,.35,20.47,3.24,8.23,3.8,15.34,10.37,25.44,8.15-17.34-1.82-22.25-17.67-36.45-18.07,0,0,39-8.18,50.53-1.27,11.52,6.91,15.83,12.18,23.08,23.5-1.94-8.24-4.03-17.12-8.54-26.35,7.09,9.25,16.69,16.79,21.07,26.07,3.52,7.47,7.49,16.84,15.72,17.5"/><path class="f" d="M178.91,175.75c-20.56-6.68-40.98-14.54-61.15-23.52,11.21,3.93,22.94,4,33.19,.21-11.83,1.47-23.77-10.02-31.02-22.42-7.25-12.4-11.4-22.17-20.26-38.03,14.86,17.93,23.57,5.17,32.29,22.84-5.41-13.82-4.63-18.65-16.37-25.2-4.54-2.53-14.99-10.7-18.43-15.27-5.05-6.7-6.19-13.08-4.77-22.68,1.17-7.88,2.53-11.26,3.69-19.15,1.34-9.16,3.22-18.93-1.47-32.33,6.26,11.15,15.79,18.76,27.88,19.94,12.09,1.18,19.63,6.7,28.27,17.8,5.5,7.06,8.54,16.57,9.78,25.41,1.63,11.59,0,23.42,8.35,33.84-9.14-21.01,2.44-35.41-6.06-52.01,0,0,31.89,40.49,32.7,57.59,.81,17.1-1.37,24.99-7.29,39.59,6.4-6.78,13.29-14.09,19.01-24.38-4.12,13.28-5.09,28.52-10.93,38.68-4.7,8.18-10.88,17.92-6.35,27.78"/></g><g><path class="i" d="M373.02,215.42c10.69-3.31,30.69-4.16,48.37-3.75,24.05,.56,47.22,3,64.92,6.84-11.22,.34-20.15,2.26-29.11,3.88-14.81,2.68-32.02,4.76-50.57,5.37-18.55,.61-38.52-.37-52.77-3.21"/><path class="g" d="M346.03,216.59c7.79-2.41,22.36-3.03,35.24-2.73,17.52,.41,34.4,2.18,47.3,4.98-8.18,.25-14.68,1.65-21.2,2.83-10.79,1.95-23.33,3.47-36.84,3.92s-28.06-.27-38.44-2.34"/><path class="i" d="M152.4,217.34c-10.54-3.09-30.26-3.88-47.7-3.5-23.71,.52-46.56,2.8-64.01,6.38,11.07,.32,19.87,2.11,28.7,3.62,14.61,2.5,31.58,4.44,49.87,5.02,18.29,.57,37.98-.35,52.03-3"/><path class="g" d="M184.51,223.73c-7.79,2.41-22.36,3.03-35.24,2.73-17.52-.41-34.4-2.18-47.3-4.98,8.18-.25,14.68-1.65,21.2-2.83,10.79-1.95,23.33-3.47,36.84-3.92,13.51-.45,28.06,.27,38.44,2.34"/><path class="i" d="M346.38,175.22c11.27-50.43,31.61-96.49,56.04-126.9-11.7,56.65-31.05,110.31-55.26,153.23"/><path class="g" d="M342.61,191.87c6.17-27.6,17.3-52.81,30.67-69.45-6.4,31.01-16.99,60.37-30.24,83.86"/><path class="i" d="M179.32,175.4c-28.87-37.97-50.79-85.66-60.39-131.4,32.85,41.41,60.31,91.33,78.41,142.59"/><path class="g" d="M191.17,190.56c-17.79-23.3-30.36-48.94-34.65-70.65,20.33,25.76,36.57,53.74,46.37,79.93"/></g></g><g><path class="g" d="M150.78,244.16c.76,.99-1.69-2.27-.93-1.29-14.99-23.54-10.67-50.78,5.94-73.37,4-5.44,8.86-10.42,14.74-14.12,5.91-3.73,12.69-6.08,19.4-8.4l13.73-4.75c5.28-1.83,10.57-3.66,16.03-4.98,19.59-4.77,40.38-2.88,60.19,1.02,19.74,3.89,38.96,9.73,58.1,15.66,7.41,2.3,15.08,4.76,20.63,9.85,3.32,3.04,5.68,6.84,8,10.59,5.11,8.28,10.26,16.62,13.51,25.67,3.25,9.05,4.51,18.95,1.71,28.13-4.27,14-17.11,23.86-29.64,32.66-4.26,3-8.78,5.67-13.28,8.35-6.6,3.92-13.3,7.88-20.76,10.13-2.83,.85-5.73,1.45-8.64,1.99-3.63,.68-7.27,1.28-10.91,1.89l-18.04,2.99c-6.37,1.06-12.65,.77-19.09,1.4-2.15,.21-4.31,.42-6.47,.42-4.79-.01-9.54-1.08-14.33-1.04-2.03,.02-4.11,.23-6.05-.33-5.37-1.53-9.82-1.95-15.34-2.97-3.75-.69-7.5-1.38-11.16-2.42-10-2.84-18.94-8.18-27.4-13.86-9.59-6.44-21.23-15.77-29.93-23.22Z"/><path class="g" d="M247.17,149.72c4.63-8.14,8.08-16.87,10.21-25.87,4.13,9.01,8.29,18.12,10.09,27.77"/></g><g><path class="h" d="M244.4,268.4c1.18,0,2.26-.77,2.75-1.74s.43-2.1,.07-3.1c-1.39-3.92-6.9-5.99-7.55-10.08-.48-3.07,2.26-6.04,5.53-7.08-.96,1.67-.36,3.74,.77,5.3,1.13,1.56,3.66,2.13,4.97,3.57,2.95,3.26,5.03,8.65,2.89,12.45-.8,1.43-3.84,2.72-5.49,3.32s-3.67,.46-5.01-.57c-.97-.74-1.54-2.02-1.22-3.14,.63,.48,1.38,1.07,2.28,1.07Z"/><path class="h" d="M284.86,268.34c-1.15-.03-2.19-.82-2.63-1.79s-.36-2.08,.02-3.06c1.47-3.83,6.91-5.72,7.67-9.73,.56-3.01-2.02-6.02-5.19-7.13,.88,1.68,.25,3.7-.9,5.2s-3.64,2-4.95,3.38c-2.98,3.13-5.17,8.39-3.19,12.19,.74,1.43,3.66,2.79,5.25,3.43s3.56,.55,4.9-.42c.97-.71,1.57-1.95,1.29-3.07-.63,.46-1.38,1.02-2.26,.99Z"/><g><path class="f" d="M236.28,262.24c-4.54,3.13-9.18,6.32-14.58,7.89-5.4,1.57-11.79,1.28-16.32-2.1-1.89-1.41-3.41-3.31-5.54-4.37-4.14-2.05-9.15-.3-12.98,2.04-6.76,4.13-12.22,10.1-15.56,17.04,6.86-8.19,21.09-9.68,30.09-3.13-5.52-2.1-11.65,1.55-14.72,6.22s-4.21,10.28-6.87,15.17c-2.66,4.89-7,8.42-13.67,8.52,16.26-.17,32.29-5.04,45.4-13.79-3.33,11.75-12.66,21.72-24.58,26.28,8.89-1.01,17.9-2.05,26.15-5.2s15.8-8.7,19.15-16.48c4.6-10.68,.64-23.51,5.07-34.26"/><path class="e" d="M231.2,268.74c-1.56,1.71-3.27,3.29-5.13,4.71-1.29,.99-2.67,1.92-4.25,2.45-3.81,1.29-8.08,.1-12-1.1l-5.44-1.66c-3.01-.91-6.06-1.84-9.2-1.93s-6.42,.77-8.49,2.93c3.84-1.32,8.26-1.6,12.06,0s6.74,5.37,6.46,9.24c-2.14-.98-4.7-.55-6.84,.32-3.48,1.42-6.36,3.92-8.59,6.8s-3.83,6.16-5.23,9.49c5.61-1.39,11.04-3.36,16.17-5.88,3.96-1.95,7.86-4.33,10.27-7.88,1.71,4.81,1.74,10.06,.41,14.91-1.33,4.84-3.99,9.29-7.41,13.07,2.47-2.17,5-4.28,7.72-6.17,1.89-1.32,3.88-2.53,5.59-4.07,2.1-1.89,3.7-4.21,5.11-6.61,5.42-9.28,7.97-19.83,10.46-30.22"/></g><g><path class="f" d="M291.86,262.34c4.72,2.91,9.56,5.86,15.18,7.22,5.62,1.36,12.27,.85,16.96-2.6,1.96-1.44,3.53-3.34,5.75-4.45,4.3-2.14,9.51-.6,13.5,1.56,7.04,3.81,12.73,9.45,16.22,16.1-7.15-7.77-21.96-8.74-31.3-2.05,5.73-2.24,12.12,1.12,15.33,5.57,3.21,4.45,4.4,9.89,7.18,14.57,2.78,4.69,7.3,7.98,14.24,7.85-16.9,.37-33.59-3.84-47.24-11.94,3.5,11.36,13.22,20.77,25.63,24.82-9.25-.69-18.62-1.41-27.21-4.2-8.59-2.79-16.45-7.96-19.96-15.44-4.81-10.27-.72-22.92-5.36-33.26"/><path class="e" d="M297.16,268.51c1.62,1.62,3.41,3.1,5.34,4.43,1.35,.93,2.78,1.78,4.42,2.25,3.97,1.13,8.4-.17,12.48-1.47l5.66-1.8c3.13-.99,6.3-2,9.56-2.19s6.68,.54,8.84,2.58c-4-1.16-8.6-1.29-12.54,.41s-7,5.46-6.69,9.23c2.23-1.03,4.88-.69,7.11,.09,3.62,1.27,6.63,3.61,8.94,6.35s4,5.88,5.47,9.08c-5.84-1.17-11.49-2.91-16.83-5.2-4.13-1.77-8.19-3.96-10.69-7.34-1.77,4.75-1.79,9.87-.39,14.56,1.4,4.68,4.17,8.93,7.74,12.5-2.58-2.03-5.21-4.01-8.04-5.77-1.97-1.22-4.05-2.34-5.82-3.78-2.19-1.77-3.86-3.98-5.33-6.28-5.66-8.87-8.34-19.08-10.96-29.14"/></g></g><g><g><path class="h" d="M190.96,222.67c4.3,1.71,9.09,1.59,13.64,2.48,7.05,1.38,14.04,5.92,15.87,12.86l-3.15-15.58c-.56-2.78-1.13-5.57-2.07-8.24-2.03-5.76-5.91-10.92-11.11-14.14-7.01-4.35-20.81-6.2-24.66,3.36-2.84,7.04,5.35,16.83,11.47,19.27Z"/><path class="i" d="M205.73,219.91c2.25-.14,4.83-.45,6.1-2.32,1.49-2.19,.3-5.15-.93-7.49-1.57-2.98-3.22-6-5.7-8.28-7.48-6.89-21.42-4.09-22.13,7.34-.78,12.5,14.66,11.25,22.67,10.76Z"/><path class="d" d="M194.17,218.38l2.49-6.03c1.73-4.19,3.5-8.6,3.02-13.1-2.44,2.85-3.84,4.88-4.76,8.58-.75,3.04,.31,7.95-.76,10.55Z"/></g><g><path class="h" d="M333.05,222.67c-3.87,1.71-8.17,1.59-12.25,2.48-6.33,1.38-12.61,5.92-14.26,12.86l2.83-15.58c.5-2.78,1.01-5.57,1.86-8.24,1.83-5.76,5.31-10.92,9.98-14.14,6.3-4.35,18.69-6.2,22.16,3.36,2.55,7.04-4.8,16.83-10.31,19.27Z"/><path class="i" d="M319.78,219.91c-2.02-.14-4.34-.45-5.48-2.32-1.34-2.19-.27-5.15,.84-7.49,1.41-2.98,2.89-6,5.12-8.28,6.72-6.89,19.24-4.09,19.88,7.34,.7,12.5-13.17,11.25-20.36,10.76Z"/><path class="d" d="M330.17,218.38l-2.24-6.03c-1.56-4.19-3.14-8.6-2.72-13.1,2.19,2.85,3.45,4.88,4.27,8.58,.68,3.04-.28,7.95,.69,10.55Z"/></g></g></g></g></g></svg>