<?xml version="1.0" encoding="UTF-8"?><svg xmlns="http://www.w3.org/2000/svg" viewBox="0 0 568.81 362.64"><defs><style>.d{fill:#ef7030;}.e{fill:#f1e1a8;}.f{fill:#b72e13;}.g{fill:#c65230;}.h{fill:#1e442d;}.i{fill:#2b2b2b;}.j{fill:#353c38;}</style></defs><g id="a"/><g id="b"><g id="c"><g><path class="f" d="M345.13,203.41c11.66-25.57,4.56-55.52,8.85-83.3,2.95-19.12,11.51-37.35,24.35-51.82-5.03,13.27-6.7,27.79-4.81,41.86,.53-22.7,11.02-45,28.18-59.87,7.18-6.23,15.43-11.19,22.22-17.83,8.9-8.7,15.02-20.2,17.28-32.44-6.9,27.31-11.4,55.22-13.45,83.31,6.86-10.52,11.44-22.51,13.35-34.91-1.25,34.95-3.26,72.23-23.87,100.5,7.8-7.09,14.12-15.79,18.45-25.4-2.89,14.68-6.03,29.94-15.17,41.78-9.6,12.43-24.63,19.53-35.18,31.17-9.05,9.98-14.44,23.21-14.95,36.67"/><path class="f" d="M221.34,206.84c-11.88-25.57-4.65-55.52-9.01-83.3-3.01-19.12-11.73-37.35-24.81-51.82,5.12,13.27,6.82,27.79,4.9,41.86-.54-22.7-11.23-45-28.71-59.87-7.32-6.23-15.72-11.19-22.64-17.83-9.06-8.7-15.3-20.2-17.61-32.44,7.03,27.31,11.62,55.22,13.7,83.31-6.99-10.52-11.66-22.51-13.6-34.91,1.27,34.95,3.32,72.23,24.31,100.5-7.95-7.09-14.39-15.79-18.8-25.4,2.94,14.68,6.14,29.94,15.45,41.78,9.78,12.43,25.1,19.53,35.84,31.17,9.22,9.98,14.71,23.21,15.23,36.67"/><path class="f" d="M225.73,225.91c-28.19-.54-51.94-20.18-78.81-28.44-18.5-5.69-38.71-5.84-57.46-.43,14.17,1.22,27.97,6.06,39.77,13.95-20.64-9.47-45.36-9.64-66.4-.46-8.8,3.84-16.95,9.22-25.96,12.52-11.8,4.33-24.87,4.89-36.87,1.59,27.62,5.66,54.72,13.78,80.88,24.23-12.51,1.67-25.34,.61-37.34-3.09,31.97,14.19,66.37,28.7,100.98,22.23-9.86,4.03-20.5,6-31.07,5.75,14.48,3.8,29.6,7.61,44.32,4.44,15.46-3.33,28.56-13.98,43.73-18.54,13.01-3.9,27.31-3.04,39.63,2.4"/><path class="g" d="M389,183.43c14.22-18.55,25.97-38.99,34.84-60.62l-8.47,13.08,14.36-49.44-10.66,20.1c4.03-19.63,6.83-39.52,8.38-59.5-6.93,10.23-14.51,20.01-22.68,29.28l-.39-9.82c-9.9,16.29-19.79,32.59-29.69,48.88l3.06-11.04c-19.15,25.84-29.08,58.38-27.6,90.51,.06,1.28-.12,2.94-1.36,3.27s-1.15-2.49-.19-1.64"/><path class="g" d="M176.31,185.76c-15.59-19.02-28.24-39.84-37.54-61.74l9.19,13.36-14.39-49.89,11.41,20.45c-3.78-19.76-6.14-39.72-7.06-59.75,7.55,10.45,15.86,20.48,24.88,30.02l.88-9.81c10.7,16.61,21.4,33.23,32.1,49.84l-3.05-11.14c20.96,26.46,30.98,59.31,27.87,91.38-.12,1.28,.01,2.94,1.42,3.31s1.44-2.45,.29-1.64"/><path class="g" d="M195.99,264.53c-24.23,4.16-48.59,4.89-72.22,2.16l16.16-1.4-50.49-12.12,23.42,.17c-19.05-6.46-37.58-14.27-55.44-23.36,12.81-1.4,25.64-3.68,38.39-6.82l-8.09-5.61c19.73-1.1,39.46-2.21,59.19-3.31l-11.19-2.85c33.36-5.16,66.88,2.34,93.23,20.88,1.05,.74,2.56,1.44,3.58,.4s-1.42-2.46-1.28-1.06"/><path class="f" d="M362.2,268.99c25.9-6.32,52.34,5.9,78.9,6.95,18.28,.73,36.79-4.01,52.61-13.48-13.24,2.31-27.03,1.22-39.71-3.15,21.15,3.67,43.79-2.14,60.79-15.62,7.12-5.64,13.26-12.52,20.7-17.72,9.74-6.81,21.54-10.48,33.31-10.36-26.61,1.5-53.34,.62-79.77-2.61,11.03-4.55,23.01-6.67,34.87-6.2-32.64-5.25-67.59-10.19-97.65,4.07,8.03-6.06,17.29-10.44,27.01-12.76-14.15,.03-28.89,.19-41.58,6.65-13.33,6.78-22.72,19.68-35.49,27.5-10.95,6.71-24.22,9.37-36.8,7.38"/><path class="g" d="M386.29,260.79c23.15,3.2,46.73,3.32,69.92,.36l-15.56-.9,50.08-11.93-22.75,.66c19.06-6.2,37.73-13.58,55.88-22.1-12.31-.98-24.57-2.74-36.66-5.26l8.35-5.19c-19.05-.56-38.11-1.12-57.16-1.67l11.11-2.79c-31.93-3.89-65.12,3.55-92.33,20.7-1.08,.68-2.61,1.35-3.51,.43s1.59-2.23,1.34-.97"/><g><path class="h" d="M389.57,225.67c9.02-11.24,25.89-14.11,40.81-12.72,20.29,1.89,39.84,10.18,54.77,23.22-9.47,1.17-17,7.68-24.56,13.17-12.5,9.08-27.02,16.16-42.67,18.25s-32.5-1.26-44.52-10.9"/><path class="h" d="M210.38,225.67c-11.08-11.24-31.8-14.11-50.12-12.72-24.92,1.89-48.93,10.18-67.26,23.22,11.63,1.17,20.88,7.68,30.16,13.17,15.35,9.08,33.18,16.16,52.4,18.25s39.91-1.26,54.67-10.9"/><path class="h" d="M228.92,206.49c-4.5-53.1-35.29-104.66-84.83-142.05,2.51,59.37,26.84,118.1,69.49,167.75"/><path class="h" d="M351.54,206.49c3.67-53.1,28.74-104.66,69.08-142.05-2.04,59.37-21.85,118.1-56.59,167.75"/></g><path class="e" d="M394.03,228.15c6.5-2.06,13.58,.04,19.72,3s11.94,6.81,18.54,8.5l-10.12,6.79c-2.44,1.64-4.9,3.28-7.6,4.44-2.5,1.07-5.17,1.7-7.86,2.15-8.19,1.37-16.65,1.06-24.71-.9"/><path class="e" d="M183.29,250.05c-6.5,2.06-13.58-.04-19.72-3s-11.94-6.81-18.54-8.5l10.12-6.79c2.44-1.64,4.9-3.28,7.6-4.44,2.5-1.07,5.17-1.7,7.86-2.15,8.19-1.37,16.65-1.06,24.71,.9"/><path class="e" d="M360.52,180.41c.81-8.59,5.81-16.52,11.21-23.02s11.5-12.29,15.9-19.77l2.12,14.55c.51,3.51,1.02,7.04,.97,10.71-.05,3.4-.59,6.85-1.3,10.27-2.18,10.41-6.07,20.61-11.34,29.78"/><path class="e" d="M190.54,180.28c-5.67-6.5-7.99-15.58-8.99-23.97s-1.01-16.8-3.4-25.14l12.02,8.48c2.9,2.04,5.81,4.1,8.44,6.67,2.43,2.37,4.57,5.14,6.55,8.01,6.05,8.75,10.78,18.58,13.8,28.72"/><g><path class="e" d="M178.7,268.66c.76,.96-1.69-2.22-.93-1.25-14.99-22.96-10.67-49.54,5.94-71.58,4-5.31,8.86-10.16,14.74-13.78,5.91-3.64,12.69-5.93,19.4-8.19l13.73-4.63c5.28-1.78,10.57-3.57,16.03-4.86,19.59-4.65,40.38-2.81,60.19,.99,19.74,3.79,38.96,9.49,58.1,15.28,7.41,2.24,15.08,4.65,20.63,9.61,3.32,2.96,5.68,6.67,8,10.33,5.11,8.07,10.26,16.21,13.51,25.04,3.25,8.82,4.51,18.49,1.71,27.44-4.27,13.66-17.11,23.28-29.64,31.86-4.26,2.92-8.78,5.54-13.28,8.15-6.6,3.82-13.3,7.69-20.76,9.88-2.83,.83-5.73,1.41-8.64,1.94-3.63,.66-7.27,1.25-10.91,1.84l-18.04,2.92c-33.44,5.42-72.01-.12-99.83-18.34-9.59-6.28-21.23-15.39-29.93-22.65Z"/><path class="e" d="M275.62,174.59c4.63-7.94,8.08-16.46,10.21-25.24,4.13,8.79,8.29,17.67,10.09,27.09"/></g><path class="f" d="M282.46,268.85c.33,14.72-2.26,34.55,4.11,48.28,1.71,3.7,4.27,7.33,8.35,9.38,4.08,2.05,9.95,2.01,13.13-.94,1.08-1,1.83-2.28,3.21-2.98,2.01-1.02,4.77-.41,6.49,.94s2.62,3.24,3.37,5.1c2.54,6.26,3.98,12.82,6.89,18.97,2.91,6.15,7.6,12.07,14.69,15.05-4.51-8.64-7.32-17.9-8.3-27.28,1.96,9.84,8.58,18.99,18.12,25.04-8.23-11.02-11.53-24.03-14.14-36.81-1.49-7.31-3.51-15.56-11.1-19.45-1.98-1.01-4.38-1.65-6.63-1.17-2.38,.51-4.16,2.17-5.47,3.9-2.49,3.29-3.87,7.08-6.23,10.43-1.14,1.62-2.74,3.24-4.96,3.52-3.97,.5-6.56-3.36-7.5-6.61-4.37-15.08-.02-31-2.46-46.39-2.14-1.21-6.27-2.98-7.91-1.31s-3.16,.2-3.65,2.32"/><path class="j" d="M209.92,266.96c11.98,8.24,22.03,14.62,36.49,8.16,27.46-11.71,52.34-16.47,80.69-3.91,4.64,1.91,9.16,3.72,14.12,3.91,8.26,.28,16.39-3.39,21.75-10.02-5.1,9.13-16.71,14.4-27.14,12.58-6.89-1.13-13.09-4.21-19.69-5.93-9.59-2.58-19.64-3.57-29.53-2.76-13.16,.88-26.44,5.55-38.91,9.8-15.74,5.92-26.61-1.16-37.8-11.82h0Z"/><path class="j" d="M257.6,273.98c-1.03,4.79,.77,9.75,3.17,14.03,3.6,6.46,8.63,12.13,14.63,16.51-7.83-9.3-12.06-22.3-8.36-33.85"/><path class="j" d="M321.99,271.9c1.32,4.72-.11,9.77-2.16,14.19-3.1,6.66-7.64,12.63-13.22,17.35,7.05-9.75,10.33-22.97,5.93-34.27"/><g><path class="g" d="M330.08,227.03c-3.82-8.82-2.72-18.7,.35-27.73s7.99-17.52,11.87-26.33c3.87-8.81,6.73-18.23,5.37-27.56,4.46,7.11,7.53,14.85,9.03,22.8,.42-4.5,2.18-8.9,5.07-12.69,2.34-3.07,5.38-5.72,7.68-8.81,2.29-3.09,3.82-6.89,2.64-10.4,5.81,12.69,11.44,26.04,9.75,39.58,1.67-6.62,4.04-13.12,7.06-19.39,3.01,11.16,4.42,22.6,4.87,34.05,.36,9.27,.06,18.76-3.76,27.45-3.82,8.69-11.71,16.53-22.23,19.01-5.8,1.37-11.94,1.04-17.95,1.36s-12.36,1.45-16.64,5.05c.48-9.68-6.65-19.1-4.49-28.62"/><path class="f" d="M339.34,232.5c-.17-9-.29-18.24,3.11-26.65,4.84-11.97,16.67-22.04,16.1-34.85,.79,11.62-.05,23.32-2.5,34.71,2.29-14.74,16.27-26.27,18.2-41.05-.13,13.44-3,26.83-8.41,39.28l10.9-12.15c4.11-4.58,8.38-9.5,9.14-15.39,1.17,12.97-1.99,26.39-10.15,36.98-1.73,2.25-3.72,4.39-6.28,5.86-3.47,1.99-7.68,2.58-11.55,3.86-7.62,2.53-13.96,7.97-17.16,14.72"/></g><g><path class="g" d="M243.31,226.03c3.86-8.82,2.74-18.7-.36-27.73-3.1-9.03-8.08-17.52-11.99-26.33-3.92-8.81-6.8-18.23-5.43-27.56-4.51,7.11-7.61,14.85-9.12,22.8-.42-4.5-2.2-8.9-5.12-12.69-2.36-3.07-5.44-5.72-7.76-8.81s-3.86-6.89-2.67-10.4c-5.87,12.69-11.56,26.04-9.86,39.58-1.69-6.62-4.08-13.12-7.13-19.39-3.04,11.16-4.46,22.6-4.92,34.05-.37,9.27-.06,18.76,3.8,27.45,3.86,8.69,11.83,16.53,22.47,19.01,5.86,1.37,12.07,1.04,18.14,1.36s12.49,1.45,16.82,5.05c-.48-9.68,6.72-19.1,4.54-28.62"/><path class="f" d="M234.64,230.12c.87-8.59,1.71-17.42-1.39-25.68-4.41-11.77-16.63-22.17-15.03-34.38-1.75,11.06-1.71,22.29,.11,33.34-1.4-14.24-15.87-26.19-16.87-40.45-.87,12.86,1.26,25.84,6.25,38.1l-11.04-12.33c-4.16-4.65-8.48-9.63-8.87-15.31-2.27,12.32,.18,25.36,8.34,36.02,1.73,2.26,3.76,4.45,6.45,6.02,3.66,2.13,8.24,2.97,12.38,4.45,8.17,2.92,14.72,8.54,17.73,15.21"/></g><path class="d" d="M223.12,218.74c-2.62-1.29-5.6-2.15-7.52-4.35-1.65-1.89-2.25-4.5-2.29-7.01s.42-5,.62-7.5c1.98,3.99,7.7,4.86,9.83,8.77,.93,1.72,1.01,3.75,1.28,5.68,.34,2.41,1.54,4.81,1.76,7.13-1.06-1.12-2.29-2.05-3.68-2.73Z"/><path class="d" d="M350.83,218.48c2.42-2.15,5.4-4.02,6.73-6.77,1.15-2.36,.88-5.03,.02-7.4-.85-2.37-2.25-4.54-3.36-6.82-.75,4.45-6.75,7.32-7.7,11.75-.42,1.95,.22,3.88,.62,5.79,.49,2.39,.02,5.07,.6,7.33,.77-1.43,1.79-2.74,3.08-3.88Z"/><path class="d" d="M311.65,336.23c-.51,1.66-1.03,3.35-2.04,4.76s-2.62,2.51-4.35,2.46c-.73-.02-1.45-.24-2.17-.12-1.39,.23-2.27,1.61-2.76,2.93-.86,2.33-1.05,4.9-.55,7.34,.12-3.41,3.28-6.43,6.7-6.37-1.73,.47-2.53,2.56-2.39,4.35s.92,3.47,1.2,5.24-.13,3.89-1.7,4.75c3.91-3.04,6.87-7.28,8.39-11.99,1.41,3.7,1.03,8.03-1,11.42,1.96-1.91,3.95-3.84,5.35-6.19s2.19-5.2,1.53-7.85c-.9-3.65-4.28-6.28-5.24-9.91"/><path class="d" d="M352.46,331.05c-.23-1.75-.17-3.66-1-5.1-.72-1.24-2-1.93-3.33-2.27s-2.73-.37-4.1-.56c1.78,1.7,1.24,5.27,2.95,7.05,.75,.78,1.82,1.08,2.8,1.49,1.23,.51,2.29,1.53,3.49,1.96-.41-.78-.69-1.65-.81-2.57Z"/><path class="i" d="M273.32,253.37c-.08-.66-.58-1.22-1.15-1.43s-1.21-.11-1.75,.16c-2.11,1.03-2.92,4.26-5.17,4.89-1.69,.47-3.53-.88-4.33-2.65,1,.43,2.13-.04,2.93-.77s.96-2.19,1.69-3.02c1.64-1.87,4.53-3.38,6.8-2.43,.85,.36,1.78,1.98,2.22,2.87s.49,2.03,0,2.85c-.36,.6-1.04,1-1.69,.89,.23-.38,.51-.84,.45-1.35Z"/><path class="i" d="M301.39,252.08c.06-.66,.6-1.23,1.26-1.43s1.38-.1,2.02,.16c2.49,1.04,3.58,4.29,6.2,4.92,1.97,.48,4.03-.87,4.86-2.65-1.13,.43-2.45-.04-3.41-.78s-1.22-2.2-2.09-3.04c-1.98-1.88-5.39-3.41-7.96-2.45-.96,.36-1.95,1.98-2.41,2.87s-.47,2.04,.14,2.86c.44,.6,1.24,1,1.99,.9-.28-.39-.63-.85-.59-1.36Z"/></g></g></g></svg>