<?xml version="1.0" encoding="UTF-8"?><svg xmlns="http://www.w3.org/2000/svg" viewBox="0 0 356.52 494.19"><defs><style>.d{fill:#fff;}</style></defs><g id="a"/><g id="b"><g id="c"><g><path class="d" d="M63.55,110.75c-16.04,0-26.84,5.55-32.7,14.81v-12.03H0v170.91H30.85v-77.43c5.86,9.26,16.66,14.81,32.7,14.81,27.46,0,49.67-23.45,49.67-55.53s-22.21-55.53-49.67-55.53Zm-8.02,83.91c-15.73,0-25.3-11.11-25.3-28.38s9.56-28.38,25.3-28.38,25.91,11.11,25.91,28.38-10.18,28.38-25.91,28.38Z"/><rect class="d" x="134.21" y="113.53" width="30.85" height="105.51"/><path class="d" d="M149.63,45.66c-10.18,0-19.44,8.33-19.44,19.44s9.26,19.43,19.44,19.43,19.43-8.33,19.43-19.43-8.95-19.44-19.43-19.44Z"/><rect class="d" x="299.76" y="140.06" width="56.76" height="28.07"/><path class="d" d="M63.55,320.5c-16.04,0-26.84,5.55-32.7,14.81v-12.03H0v170.91H30.85v-77.43c5.86,9.26,16.66,14.81,32.7,14.81,27.46,0,49.67-23.45,49.67-55.53s-22.21-55.53-49.67-55.53Zm-8.02,83.91c-15.73,0-25.3-11.11-25.3-28.38s9.56-28.38,25.3-28.38,25.91,11.11,25.91,28.38-10.18,28.38-25.91,28.38Z"/><path class="d" d="M149.63,255.41c-10.18,0-19.44,8.33-19.44,19.44s9.26,19.44,19.44,19.44,19.43-8.33,19.43-19.44-8.95-19.44-19.43-19.44Z"/><rect class="d" x="134.21" y="323.28" width="30.85" height="105.51"/><path class="d" d="M343.78,219h-36.01l-83.91,117.23V177.7c12.65,14.81,35.17,41.34,35.17,41.34h39.49l-46.89-53.99c.31,0,40.41-51.52,40.41-51.52h-34.55l-33.63,43.81V0h-30.85V428.78h30.85v-74.35l79.29,74.35h45.58l-92.86-86.99,87.92-122.79Z"/></g></g></g></svg>