<?xml version="1.0" encoding="UTF-8"?>
<svg width="603px" height="265px" viewBox="0 0 603 265" version="1.1" xmlns="http://www.w3.org/2000/svg" xmlns:xlink="http://www.w3.org/1999/xlink">
    <title>twint-seeklogo.com</title>
    <defs>
        <radialGradient cx="22.4121244%" cy="8.77694134%" fx="22.4121244%" fy="8.77694134%" r="113.298114%" gradientTransform="translate(0.224121,0.087769),scale(1.000000,0.880950),translate(-0.224121,-0.087769)" id="radialGradient-1">
            <stop stop-color="#FFCC00" offset="0%"></stop>
            <stop stop-color="#FFC800" offset="9.157%"></stop>
            <stop stop-color="#FFBD00" offset="17.39%"></stop>
            <stop stop-color="#FFAB00" offset="25.28%"></stop>
            <stop stop-color="#FF9100" offset="32.95%"></stop>
            <stop stop-color="#FF7000" offset="40.46%"></stop>
            <stop stop-color="#FF4700" offset="47.86%"></stop>
            <stop stop-color="#FF1800" offset="55.03%"></stop>
            <stop stop-color="#FF0000" offset="58.22%"></stop>
            <stop stop-color="#FF0000" offset="100%"></stop>
        </radialGradient>
        <radialGradient cx="2.5154442%" cy="14.5482524%" fx="2.5154442%" fy="14.5482524%" r="139.305876%" gradientTransform="translate(0.025154,0.145483),scale(1.000000,0.656069),translate(-0.025154,-0.145483)" id="radialGradient-2">
            <stop stop-color="#00B4E6" offset="0%"></stop>
            <stop stop-color="#00B0E3" offset="20.1%"></stop>
            <stop stop-color="#01A5DB" offset="38.98%"></stop>
            <stop stop-color="#0292CD" offset="57.37%"></stop>
            <stop stop-color="#0377BA" offset="75.46%"></stop>
            <stop stop-color="#0455A1" offset="93.16%"></stop>
            <stop stop-color="#054696" offset="100%"></stop>
        </radialGradient>
    </defs>
    <g id="Page-1" stroke="none" stroke-width="1" fill="none" fill-rule="evenodd">
        <g id="Macbook-13''-Copy-3" transform="translate(-269.000000, -2098.000000)" fill-rule="nonzero">
            <g id="footer" transform="translate(-1.000000, 2004.000000)">
                <g id="twint-seeklogo.com" transform="translate(270.000000, 94.000000)">
                    <rect id="Rectangle" fill="#1B1B1B" x="0" y="0" width="603" height="265" rx="3"></rect>
                    <g id="Group" transform="translate(45.000000, 55.000000)">
                        <path d="M143.102736,119.74359 C143.102736,121.897436 141.57386,124.461538 139.73921,125.487179 L74.9148936,163.230769 C73.0802432,164.25641 70.0224924,164.25641 68.1878419,163.230769 L3.36352584,125.487179 C1.52887538,124.461538 0,121.794872 0,119.74359 L0,44.2564103 C0,42.1025641 1.52887538,39.5384615 3.36352584,38.5128205 L68.1878419,0.769230769 C70.0224924,-0.256410256 73.0802432,-0.256410256 74.9148936,0.769230769 L139.73921,38.5128205 C141.57386,39.5384615 143.102736,42.2051282 143.102736,44.2564103 L143.102736,119.74359 Z M503,49.6923077 L445.004661,49.6923077 L445.004661,63.6410256 L465.797366,63.6410256 L465.797366,123.333333 L482.207295,123.333333 L482.207295,63.6410256 L503,63.6410256 L503,49.6923077 Z M239.319959,49.6923077 L181.222695,49.6923077 L181.222695,63.6410256 L202.0154,63.6410256 L202.0154,123.333333 L218.425329,123.333333 L218.425329,63.6410256 L239.218034,63.6410256 L239.319959,49.6923077 Z M407.292401,47.4358974 C389.047822,47.4358974 378.855319,59.2307692 378.855319,76.1538462 L378.855319,123.435897 L395.163323,123.435897 L395.163323,75.8461538 C395.163323,68.4615385 399.444174,62.7179487 407.496251,62.7179487 C415.548328,62.7179487 419.727254,69.4871795 419.727254,75.8461538 L419.727254,123.435897 L435.933333,123.435897 L435.933333,76.1538462 C436.137183,59.1282051 425.638906,47.4358974 407.292401,47.4358974 Z M346.035461,49.6923077 L346.035461,123.333333 L362.24154,123.333333 L362.24154,49.6923077 L346.035461,49.6923077 Z M290.894022,78.9230769 L291.403647,82.2051282 L306.692401,123.435897 L313.317528,123.435897 L334.110233,49.7948718 L318.108004,49.7948718 L308.221277,88.4615385 L307.609726,92.6666667 L306.794326,88.4615385 L293.544073,49.7948718 L288.243972,49.7948718 L274.993718,88.4615385 L274.178318,92.6666667 L273.668693,88.4615385 L263.781966,49.7948718 L247.677812,49.7948718 L268.470517,123.435897 L275.095643,123.435897 L290.384397,82.2051282 L290.894022,78.9230769" id="Shape" fill="#FFFFFF"></path>
                        <path d="M105.390476,82.2051282 L88.470922,107.230769 L79.8072948,93.8974359 L89.7959473,78.8205128 C91.6305978,76.1538462 95.6056738,68.7692308 91.0190476,58.7179487 C87.3497467,50.5128205 79.2976697,46.6153846 72.1629179,46.6153846 C65.0281662,46.6153846 57.3837893,50.3076923 53.3067882,58.7179487 C48.6182371,68.4615385 52.6952381,75.9487179 54.4279635,78.5128205 C54.4279635,78.5128205 60.0338399,86.7179487 64.6204661,93.5897436 L72.1629179,104.564103 L83.4765957,122 C83.5785208,122.102564 85.3112462,124.871795 88.470922,124.871795 C91.4267477,124.871795 93.3633232,122.102564 93.5671733,121.897436 L120.06768,82.4102564 L105.390476,82.4102564 L105.390476,82.2051282 L105.390476,82.2051282 Z M72.0609929,82.8205128 C72.0609929,82.8205128 67.6782168,76.0512821 64.7223911,71.3333333 C61.6646403,66.3076923 65.0281662,58.7179487 72.0609929,58.7179487 C78.9918946,58.7179487 82.4573455,66.3076923 79.3995947,71.3333333 C76.545694,76.0512821 72.0609929,82.8205128 72.0609929,82.8205128 Z" id="Shape_1_" fill="url(#radialGradient-1)"></path>
                        <path d="M55.8549139,106.410256 L39.2411348,82.9230769 C39.2411348,82.9230769 34.8583587,76.1538462 31.9025329,71.4358974 C28.8447822,66.4102564 32.208308,58.8205128 39.2411348,58.8205128 C40.15846,58.8205128 40.8719352,58.9230769 41.6873354,59.1282051 L47.4970618,48.3589744 C44.8470111,47.2307692 41.8911854,46.6153846 39.2411348,46.6153846 C32.208308,46.6153846 24.4620061,50.3076923 20.3850051,58.7179487 C15.6964539,68.4615385 19.7734549,75.9487179 21.5061803,78.5128205 L50.5548126,121.897436 C50.8605876,122.205128 52.6952381,124.974359 55.7529889,124.974359 C58.8107396,124.974359 60.6453901,122.307692 60.8492401,122 L69.6147923,108.564103 L62.0723404,97.4871795 L55.8549139,106.410256 L55.8549139,106.410256 Z" id="Path" fill="url(#radialGradient-2)"></path>
                    </g>
                </g>
            </g>
        </g>
    </g>
</svg>